<svg width="8" height="13" viewBox="0 0 8 13" fill="none" xmlns="http://www.w3.org/2000/svg">
<path d="M8.00733 6.3755C8.00733 6.64115 7.91282 6.87358 7.7238 7.07282L2.72763 12.0613C2.53862 12.2503 2.30873 12.3448 2.03798 12.3448C1.76722 12.3448 1.53734 12.2503 1.34832 12.0613L0.765947 11.4866C0.57693 11.2874 0.482422 11.0549 0.482422 10.7893C0.482422 10.5185 0.57693 10.2887 0.765947 10.0996L4.49008 6.3755L0.765947 2.65903C0.57693 2.45979 0.482422 2.22735 0.482422 1.96171C0.482422 1.69095 0.57693 1.46107 0.765947 1.27205L1.34832 0.697339C1.53223 0.503214 1.76212 0.406152 2.03798 0.406152C2.31384 0.406152 2.54372 0.503214 2.72763 0.697339L7.7238 5.68584C7.91282 5.87486 8.00733 6.10475 8.00733 6.3755Z" fill="white"/>
</svg>
